<svg width="17" height="19" viewBox="0 0 17 19" fill="none" xmlns="http://www.w3.org/2000/svg">
<path d="M8.20229 0.0897827L0.262085 4.61678V13.8571L6.39933 17.4355L6.36876 15.9325L1.49403 13.075V6.20978L7.57013 9.64598V17.7298L8.21128 18.0898L8.87311 17.7289V9.64688L14.9402 6.20978V13.075L10.0952 15.8722V17.3752L16.2621 13.9246V4.61588L8.20229 0.0897827ZM8.20229 8.56328L2.27456 5.06768L8.20049 1.57838L14.2703 5.06768L8.20049 8.56328H8.20229ZM3.6324 11.9536L4.81938 11.2768L4.71867 11.1004L3.53169 11.7772L3.6324 11.9536ZM5.71142 10.7638L6.8984 10.087L6.79679 9.91058L5.60981 10.5874L5.71142 10.7638ZM8.29041 7.58948V6.22868H8.08718V7.58948H8.29041ZM8.29041 5.21708V3.84908H8.08718V5.21708H8.29041ZM8.29041 2.93648V1.56848H8.08718V2.93648H8.29041ZM10.8568 10.5955L9.67882 9.91148L9.57631 10.087L10.7552 10.771L10.8577 10.5946L10.8568 10.5955ZM12.9134 11.7853L11.7264 11.1013L11.6248 11.2768L12.8117 11.9608L12.9134 11.7853ZM1.5345 13.1533L2.71339 12.4774L2.61267 12.301L1.43378 12.9769L1.5345 13.1533ZM15.0041 12.9751L13.8252 12.2911L13.7227 12.4666L14.9016 13.1506L15.0041 12.9751Z" fill="#718096"/>
</svg>
