<svg width="13" height="16" viewBox="0 0 13 16" fill="none" xmlns="http://www.w3.org/2000/svg">
<path d="M10.5882 10.4335H5.29412C5.01838 10.414 4.87132 10.2578 4.85294 9.96478V2.46478C4.87132 2.17181 5.01838 2.01556 5.29412 1.99603H9.15441L11.0294 3.98822V9.96478C11.011 10.2578 10.864 10.414 10.5882 10.4335ZM5.29412 11.8398H10.5882C11.0846 11.8203 11.4982 11.6347 11.829 11.2831C12.1599 10.9316 12.3346 10.4921 12.3529 9.96478V3.98822C12.3529 3.5976 12.2243 3.26556 11.9669 2.99213L10.0919 0.999939C9.83456 0.726501 9.52206 0.589783 9.15441 0.589783H5.29412C4.79779 0.609314 4.38419 0.794861 4.05331 1.14642C3.72243 1.49799 3.54779 1.93744 3.52941 2.46478V9.96478C3.54779 10.4921 3.72243 10.9316 4.05331 11.2831C4.38419 11.6347 4.79779 11.8203 5.29412 11.8398ZM1.76471 4.33978C1.26838 4.35931 0.854779 4.54486 0.523897 4.89642C0.193015 5.24799 0.0183824 5.68744 0 6.21478V13.7148C0.0183824 14.2421 0.193015 14.6816 0.523897 15.0331C0.854779 15.3847 1.26838 15.5703 1.76471 15.5898H7.05882C7.55515 15.5703 7.96875 15.3847 8.29963 15.0331C8.63052 14.6816 8.80515 14.2421 8.82353 13.7148V12.7773H7.5V13.7148C7.48162 14.0078 7.33456 14.164 7.05882 14.1835H1.76471C1.48897 14.164 1.34191 14.0078 1.32353 13.7148V6.21478C1.34191 5.92181 1.48897 5.76556 1.76471 5.74603H2.64706V4.33978H1.76471Z" fill="#718096"/>
</svg>
