<svg width="11" height="12" viewBox="0 0 11 12" fill="none" xmlns="http://www.w3.org/2000/svg">
<path d="M7.80811 7.02207C7.16748 7.02207 6.85945 7.36062 5.80811 7.36062C4.75677 7.36062 4.45096 7.02207 3.80811 7.02207C2.15186 7.02207 0.808105 8.29584 0.808105 9.86582V10.4075C0.808105 10.9682 1.28802 11.4231 1.87953 11.4231H9.73668C10.3282 11.4231 10.8081 10.9682 10.8081 10.4075V9.86582C10.8081 8.29584 9.46436 7.02207 7.80811 7.02207ZM9.73668 10.4075H1.87953V9.86582C1.87953 8.85866 2.74561 8.0377 3.80811 8.0377C4.134 8.0377 4.66302 8.37624 5.80811 8.37624C6.96212 8.37624 7.47998 8.0377 7.80811 8.0377C8.87061 8.0377 9.73668 8.85866 9.73668 9.86582V10.4075ZM5.80811 6.68353C7.58266 6.68353 9.02239 5.31879 9.02239 3.63666C9.02239 1.95453 7.58266 0.589783 5.80811 0.589783C4.03355 0.589783 2.59382 1.95453 2.59382 3.63666C2.59382 5.31879 4.03355 6.68353 5.80811 6.68353ZM5.80811 1.60541C6.98891 1.60541 7.95096 2.51735 7.95096 3.63666C7.95096 4.75596 6.98891 5.66791 5.80811 5.66791C4.6273 5.66791 3.66525 4.75596 3.66525 3.63666C3.66525 2.51735 4.6273 1.60541 5.80811 1.60541Z" fill="#7C8798"/>
</svg>
