<svg width="28" height="28" viewBox="0 0 28 28" fill="none" xmlns="http://www.w3.org/2000/svg">
<g clip-path="url(#clip0_1_3034)">
<path d="M14.2161 26.746C21.2059 26.746 26.8723 21.0796 26.8723 14.0898C26.8723 7.09993 21.2059 1.43353 14.2161 1.43353C7.22621 1.43353 1.55981 7.09993 1.55981 14.0898C1.55981 21.0796 7.22621 26.746 14.2161 26.746Z" stroke="#73C2D6" stroke-width="1.6875" stroke-miterlimit="10" stroke-linejoin="round"/>
<path d="M11.6848 6.9278C8.73506 7.97067 6.62231 10.7829 6.62231 14.0895C6.62231 18.2838 10.0218 21.6833 14.2161 21.6833C18.4103 21.6833 21.8098 18.2838 21.8098 14.0895C21.8098 10.7829 19.6971 7.97067 16.7473 6.9278" stroke="#73C2D6" stroke-width="1.6875" stroke-miterlimit="10" stroke-linejoin="round"/>
<path d="M14.2161 3.96478V14.0898" stroke="#73C2D6" stroke-width="1.6875" stroke-miterlimit="10" stroke-linejoin="round"/>
</g>
<defs>
<clipPath id="clip0_1_3034">
<rect width="27" height="27" fill="white" transform="translate(0.716064 0.589783)"/>
</clipPath>
</defs>
</svg>
